<svg data-v-423bf9ae="" xmlns="http://www.w3.org/2000/svg" viewBox="0 0 208.09955151416293 60" class="font"><!----><!----><!----><g data-v-423bf9ae="" id="aa3f39ac-76fa-4132-956f-c83d944e35c1" fill="white" transform="matrix(4.52488679972365,0,0,4.52488679972365,-3.619908398670347,-32.66968222148288)"><path d="M2.66 13.48L2.66 13.48Q3.34 13.26 4.29 12.98L4.29 12.98Q5.21 12.70 5.44 12.59Q5.67 12.48 5.67 12.27L5.67 12.27Q5.67 11.66 5.35 11.19Q5.02 10.72 4.40 10.72L4.40 10.72Q3.96 10.72 3.62 10.90Q3.27 11.09 3.07 11.37Q2.86 11.66 2.72 12.03Q2.58 12.40 2.53 12.74Q2.47 13.08 2.47 13.42L2.47 13.42Q2.47 13.49 2.58 13.49L2.58 13.49Q2.59 13.49 2.62 13.49Q2.65 13.48 2.66 13.48ZM6.68 15.62L6.89 15.67L7.04 15.94Q6.16 16.56 5.38 16.94Q4.61 17.32 3.83 17.32L3.83 17.32Q2.43 17.32 1.65 16.60L1.65 16.60Q0.80 15.81 0.80 14.23L0.80 14.23Q0.80 13.45 1.05 12.73Q1.29 12.00 1.76 11.43Q2.23 10.85 2.99 10.50Q3.76 10.16 4.72 10.16L4.72 10.16Q5.24 10.16 5.70 10.26Q6.15 10.37 6.54 10.60Q6.93 10.83 7.16 11.24Q7.39 11.65 7.39 12.20L7.39 12.20Q7.39 12.60 6.99 12.72L6.99 12.72Q6.95 12.72 2.47 14.11L2.47 14.11Q2.47 14.69 2.70 15.19Q2.93 15.70 3.42 16.03Q3.90 16.37 4.55 16.37L4.55 16.37Q5.45 16.37 6.68 15.62L6.68 15.62ZM11.62 7.72L11.81 7.59L14.49 7.30L14.62 7.39Q14.59 7.66 14.56 8.23Q14.52 8.79 14.51 8.99Q14.49 9.18 14.48 9.56Q14.46 9.95 14.45 10.26Q14.44 10.58 14.44 10.99L14.44 10.99L14.43 15.09Q14.43 15.44 14.55 15.74Q14.67 16.04 14.94 16.04L14.94 16.04Q15.11 16.04 15.41 15.87Q15.71 15.71 15.93 15.52L15.93 15.52L16.17 15.83Q15.78 16.23 15.47 16.50Q15.17 16.76 14.71 17.00Q14.25 17.25 13.86 17.25L13.86 17.25Q13.42 17.25 13.20 16.94Q12.98 16.63 12.95 16.18L12.95 16.18Q11.43 17.23 10.26 17.23L10.26 17.23Q9.76 17.23 9.36 17.05Q8.96 16.86 8.71 16.58Q8.46 16.30 8.29 15.91Q8.13 15.53 8.06 15.16Q7.99 14.78 7.99 14.39L7.99 14.39Q7.99 12.51 8.97 11.33Q9.95 10.16 11.59 10.16L11.59 10.16Q12.36 10.16 12.87 10.33L12.87 10.33L12.96 10.26L12.96 8.96Q12.96 8.69 12.90 8.53Q12.84 8.37 12.67 8.29Q12.50 8.20 12.33 8.16Q12.15 8.13 11.79 8.08L11.79 8.08Q11.76 8.08 11.74 8.08Q11.72 8.07 11.68 8.07Q11.65 8.07 11.62 8.06L11.62 8.06L11.62 7.72ZM12.96 15.51L12.96 15.51L12.96 12.02Q12.96 11.26 12.68 10.98Q12.41 10.71 11.87 10.71L11.87 10.71Q11.38 10.71 11.00 10.90Q10.61 11.10 10.37 11.41Q10.14 11.72 9.98 12.14Q9.83 12.56 9.77 12.97Q9.71 13.37 9.71 13.79L9.71 13.79Q9.71 14.13 9.75 14.44Q9.79 14.75 9.90 15.08Q10.01 15.42 10.18 15.66Q10.34 15.90 10.63 16.05Q10.92 16.21 11.29 16.21L11.29 16.21Q12.07 16.21 12.96 15.51ZM22.69 15.31L22.69 15.31Q22.69 16.86 22.48 17.72L22.48 17.72Q22.28 18.57 21.66 19.22Q21.05 19.86 20.24 20.17Q19.44 20.48 18.56 20.48L18.56 20.48Q17.96 20.48 17.33 20.20Q16.69 19.92 16.32 19.48L16.32 19.48L17.16 18.38L17.45 18.38Q18.25 19.78 19.19 19.78L19.19 19.78Q19.59 19.78 19.96 19.61Q20.32 19.43 20.54 19.15L20.54 19.15Q20.97 18.57 21.08 18.05Q21.20 17.53 21.22 16.32L21.22 16.32Q20.45 16.82 19.79 17.09Q19.12 17.36 18.40 17.36L18.40 17.36Q16.39 17.36 16.39 14.10L16.39 14.10Q16.39 12.28 17.31 11.22Q18.24 10.16 19.84 10.16L19.84 10.16Q20.88 10.16 21.70 10.71L21.70 10.71L22.57 10.36L22.74 10.41Q22.70 11.15 22.70 11.83Q22.69 12.51 22.69 15.31ZM21.22 15.50L21.22 15.50L21.22 11.87Q21.22 11.33 20.83 11.03Q20.43 10.73 19.99 10.73L19.99 10.73Q19.31 10.73 18.86 11.09Q18.40 11.45 18.21 12.01Q18.01 12.58 18.01 13.32L18.01 13.32Q18.01 16.28 19.54 16.28L19.54 16.28Q20.01 16.28 20.48 16.06Q20.95 15.85 21.22 15.50ZM26.70 13.48L26.70 13.48Q27.38 13.26 28.33 12.98L28.33 12.98Q29.25 12.70 29.48 12.59Q29.71 12.48 29.71 12.27L29.71 12.27Q29.71 11.66 29.39 11.19Q29.07 10.72 28.44 10.72L28.44 10.72Q28.01 10.72 27.66 10.90Q27.32 11.09 27.11 11.37Q26.90 11.66 26.76 12.03Q26.62 12.40 26.57 12.74Q26.52 13.08 26.52 13.42L26.52 13.42Q26.52 13.49 26.62 13.49L26.62 13.49Q26.63 13.49 26.66 13.49Q26.69 13.48 26.70 13.48ZM30.72 15.62L30.93 15.67L31.08 15.94Q30.20 16.56 29.43 16.94Q28.65 17.32 27.88 17.32L27.88 17.32Q26.47 17.32 25.70 16.60L25.70 16.60Q24.84 15.81 24.84 14.23L24.84 14.23Q24.84 13.45 25.09 12.73Q25.33 12.00 25.80 11.43Q26.27 10.85 27.04 10.50Q27.80 10.16 28.76 10.16L28.76 10.16Q29.29 10.16 29.74 10.26Q30.19 10.37 30.58 10.60Q30.97 10.83 31.20 11.24Q31.43 11.65 31.43 12.20L31.43 12.20Q31.43 12.60 31.03 12.72L31.03 12.72Q30.99 12.72 26.52 14.11L26.52 14.11Q26.52 14.69 26.75 15.19Q26.97 15.70 27.46 16.03Q27.95 16.37 28.59 16.37L28.59 16.37Q29.49 16.37 30.72 15.62L30.72 15.62ZM36.80 11.13L36.80 11.13L35.79 12.16L35.57 12.11Q35.53 11.85 35.44 11.61Q35.35 11.37 35.19 11.16Q35.03 10.94 34.77 10.82Q34.52 10.69 34.21 10.69L34.21 10.69Q33.75 10.69 33.52 10.96Q33.29 11.22 33.29 11.70L33.29 11.70Q33.29 11.87 33.36 12.03Q33.42 12.20 33.51 12.32Q33.59 12.44 33.76 12.57Q33.93 12.71 34.05 12.79Q34.17 12.87 34.39 12.98Q34.61 13.10 34.71 13.15Q34.82 13.19 35.04 13.30L35.04 13.30Q35.58 13.54 35.88 13.71Q36.18 13.88 36.44 14.10Q36.70 14.31 36.79 14.56Q36.89 14.81 36.89 15.16L36.89 15.16Q36.89 15.68 36.62 16.11Q36.34 16.53 35.89 16.78Q35.44 17.04 34.91 17.17Q34.39 17.30 33.85 17.30L33.85 17.30Q32.28 17.30 31.43 16.37L31.43 16.37L32.31 15.05L32.53 15.06Q32.62 15.42 32.73 15.67Q32.83 15.93 33.02 16.21Q33.20 16.49 33.49 16.64Q33.78 16.78 34.16 16.78L34.16 16.78Q34.64 16.78 34.98 16.50Q35.32 16.21 35.32 15.76L35.32 15.76Q35.32 15.42 35 15.11L35 15.11Q34.84 14.97 34.53 14.80Q34.21 14.63 33.89 14.48Q33.56 14.33 33.21 14.13Q32.85 13.92 32.57 13.70Q32.30 13.47 32.12 13.15Q31.94 12.82 31.94 12.46L31.94 12.46Q31.94 11.88 32.17 11.43Q32.40 10.98 32.79 10.71Q33.18 10.45 33.67 10.31Q34.17 10.17 34.72 10.17L34.72 10.17Q35.46 10.17 35.99 10.37Q36.53 10.58 36.80 11.13ZM42.32 10.81L42.51 10.81L45.20 7.51L46.79 7.29L46.79 7.67Q46.28 8.01 45.75 8.48Q45.21 8.96 44.68 9.54Q44.14 10.12 43.74 10.58Q43.35 11.04 42.83 11.67L42.83 11.67Q43.74 13.19 44.56 14.30L44.56 14.30Q45.99 16.28 46.79 16.52L46.79 16.52L46.79 16.77L44.43 17.27Q43.61 16.17 41.73 13.14L41.73 13.14L41.51 13.14Q40.97 13.77 40.14 14.88Q39.32 16.00 38.79 16.82L38.79 16.82L37.32 17.10L37.32 16.74L41.23 12.36L38.71 8.37Q38.58 8.20 38.32 8.08Q38.05 7.95 37.87 7.90Q37.70 7.85 37.32 7.77L37.32 7.77L37.32 7.43L37.43 7.30L40.25 7.22Q40.90 8.50 42.32 10.81L42.32 10.81Z"></path></g><!----><!----></svg>