<svg data-v-fde0c5aa="" xmlns="http://www.w3.org/2000/svg" viewBox="0 0 300 300" class="font"><!----><defs data-v-fde0c5aa=""><!----></defs><rect data-v-fde0c5aa="" fill="#E6F2FE" x="0" y="0" width="300px" height="300px" class="logo-background-square"></rect><defs data-v-fde0c5aa=""><linearGradient data-v-fde0c5aa="" gradientTransform="rotate(25)" id="9fbaf2dc-42d6-44a3-9242-7dbb813b5903" x1="0%" y1="0%" x2="100%" y2="0%"><stop data-v-fde0c5aa="" offset="0%" stop-color="#51A4FB" stop-opacity="1"></stop><stop data-v-fde0c5aa="" offset="100%" stop-color="#51A4FB" stop-opacity="1"></stop></linearGradient></defs><g data-v-fde0c5aa="" id="8679c5f3-1152-43b5-8635-e7ece05156df" fill="url(#9fbaf2dc-42d6-44a3-9242-7dbb813b5903)" transform="matrix(5.3606236620907035,0,0,5.3606236620907035,37.05165692194649,98.43079842801757)"><path d="M6.37 9.25L1.88 9.25Q1.89 10.43 2.56 11.33Q3.22 12.24 4.05 12.24L4.05 12.24Q5.26 12.24 6.01 11.31L6.01 11.31L6.34 11.48Q5.94 12.15 5.29 12.46Q4.63 12.77 3.57 12.77L3.57 12.77Q3.04 12.77 2.55 12.61Q2.06 12.45 1.58 12.07Q1.11 11.70 0.83 10.98Q0.55 10.25 0.55 9.24L0.55 9.24Q0.55 8.01 1.31 7.17Q2.07 6.33 3.43 6.33L3.43 6.33Q4.91 6.33 5.64 7.16Q6.37 7.99 6.37 9.25L6.37 9.25ZM1.89 8.82L1.89 8.82L5.00 8.82Q4.91 7.81 4.57 7.28Q4.23 6.75 3.37 6.75L3.37 6.75Q2.88 6.75 2.43 7.32Q1.97 7.90 1.89 8.82ZM11.98 6.61L11.98 6.61L11.98 4.80Q11.98 4.80 11.10 4.73L11.10 4.73L11.10 4.41Q11.37 4.41 12.14 4.11Q12.92 3.81 13.24 3.81L13.24 3.81L13.24 11.77L14.13 11.84L14.13 12.17Q13.86 12.17 13.08 12.47Q12.31 12.77 11.98 12.77L11.98 12.77L11.98 12.31Q11.31 12.77 10.30 12.77L10.30 12.77Q9.84 12.77 9.39 12.61Q8.93 12.45 8.48 12.10Q8.02 11.76 7.74 11.09Q7.45 10.42 7.45 9.52L7.45 9.52Q7.45 7.95 8.32 7.11Q9.20 6.27 10.61 6.27L10.61 6.27Q11.41 6.27 11.98 6.61ZM11.98 11.84L11.98 7.04Q11.48 6.75 10.70 6.75L10.70 6.75Q9.93 6.75 9.35 7.49Q8.78 8.23 8.78 9.52L8.78 9.52Q8.78 10.37 9.28 11.33Q9.77 12.29 10.44 12.29L10.44 12.29Q11.37 12.29 11.98 11.84L11.98 11.84ZM20.75 6.33L20.75 6.33L20.75 12.22Q20.75 13.66 20.05 14.55Q19.36 15.43 18.03 15.43L18.03 15.43Q16.84 15.43 16.12 15.02Q15.40 14.62 15.40 14.17L15.40 14.17Q15.40 13.85 15.57 13.66Q15.74 13.47 16.00 13.47L16.00 13.47Q16.25 13.47 16.44 13.59Q16.63 13.72 16.63 13.96L16.63 13.96Q16.63 14.41 16.28 14.55L16.28 14.55Q16.66 14.92 17.89 14.92L17.89 14.92Q19.33 14.92 19.47 12.35L19.47 12.35Q18.83 12.77 17.82 12.77L17.82 12.77Q17.36 12.77 16.91 12.62Q16.45 12.47 15.99 12.14Q15.54 11.80 15.25 11.14Q14.97 10.47 14.97 9.58L14.97 9.58Q14.97 8.01 15.84 7.17Q16.72 6.33 18.13 6.33L18.13 6.33Q19.01 6.33 19.67 6.78L19.67 6.78Q20.38 6.33 20.75 6.33ZM19.49 11.89L19.49 11.89L19.49 11.72L19.49 7.10Q18.98 6.80 18.21 6.80Q17.44 6.80 16.87 7.54Q16.30 8.27 16.30 9.58L16.30 9.58Q16.30 10.81 16.76 11.55Q17.22 12.29 17.96 12.29L17.96 12.29Q18.89 12.29 19.49 11.89ZM28.07 9.25L23.58 9.25Q23.59 10.43 24.25 11.33Q24.92 12.24 25.75 12.24L25.75 12.24Q26.96 12.24 27.71 11.31L27.71 11.31L28.04 11.48Q27.64 12.15 26.98 12.46Q26.33 12.77 25.27 12.77L25.27 12.77Q24.74 12.77 24.25 12.61Q23.76 12.45 23.28 12.07Q22.81 11.70 22.53 10.98Q22.25 10.25 22.25 9.24L22.25 9.24Q22.25 8.01 23.01 7.17Q23.77 6.33 25.13 6.33L25.13 6.33Q26.61 6.33 27.34 7.16Q28.07 7.99 28.07 9.25L28.07 9.25ZM23.59 8.82L23.59 8.82L26.70 8.82Q26.61 7.81 26.27 7.28Q25.93 6.75 25.07 6.75L25.07 6.75Q24.58 6.75 24.13 7.32Q23.67 7.90 23.59 8.82ZM31.50 12.35L31.50 12.35Q31.89 12.35 32.36 12.10Q32.83 11.84 32.83 11.34L32.83 11.34Q32.83 10.53 31.16 9.94L31.16 9.94Q30.76 9.80 30.50 9.67Q30.24 9.55 29.93 9.32Q29.62 9.10 29.47 8.78Q29.32 8.46 29.32 8.02L29.32 8.02Q29.32 7.24 29.89 6.78Q30.46 6.33 31.28 6.33L31.28 6.33Q31.75 6.33 32.25 6.54Q32.75 6.75 32.82 6.75L32.82 6.75Q32.98 6.75 32.98 6.47L32.98 6.47L33.31 6.47L33.31 8.15L33.00 8.15Q32.91 7.56 32.43 7.15Q31.95 6.75 31.32 6.75L31.32 6.75Q30.87 6.75 30.57 6.96Q30.27 7.17 30.27 7.53L30.27 7.53Q30.27 7.74 30.35 7.92Q30.44 8.09 30.52 8.20Q30.60 8.30 30.84 8.43Q31.07 8.55 31.19 8.60Q31.30 8.65 31.62 8.76Q31.93 8.88 32.05 8.92L32.05 8.92Q32.77 9.20 33.29 9.71Q33.81 10.22 33.81 10.89L33.81 10.89Q33.81 11.75 33.12 12.26Q32.44 12.77 31.39 12.77L31.39 12.77Q30.88 12.77 30.41 12.53Q29.93 12.29 29.88 12.29L29.88 12.29Q29.79 12.29 29.68 12.40Q29.57 12.52 29.57 12.63L29.57 12.63L29.23 12.63L29.23 10.65L29.54 10.65Q29.64 11.37 30.21 11.86Q30.77 12.35 31.50 12.35ZM34.36 4.44L37.42 4.44L37.42 4.73Q36.76 4.73 36.61 4.90L36.61 4.90L38.14 7.57L39.80 4.96Q39.66 4.73 38.95 4.73L38.95 4.73L38.95 4.44L41.24 4.44L41.24 4.73Q40.56 4.73 40.40 4.97L40.40 4.97L38.42 8.06L40.70 12.04Q40.85 12.33 41.59 12.33L41.59 12.33L41.59 12.63L38.53 12.63L38.53 12.33Q39.19 12.33 39.34 12.17L39.34 12.17L37.67 9.24L35.83 12.11Q35.97 12.33 36.68 12.33L36.68 12.33L36.68 12.63L34.38 12.63L34.38 12.33Q35.08 12.33 35.28 12.03L35.28 12.03L37.38 8.75L35.25 5.01Q35.10 4.73 34.36 4.73L34.36 4.73L34.36 4.44Z"></path></g><!----><!----></svg>