<svg data-v-423bf9ae="" xmlns="http://www.w3.org/2000/svg" viewBox="0 0 NaN 90" class="iconLeft"><!----><!----><!----><g data-v-423bf9ae="" id="8b58d04d-cb1d-42d0-ae08-01a63f364416" fill="black" transform="matrix(Infinity,0,0,Infinity,0,0)"><path d=""></path></g><!----><g data-v-423bf9ae="" id="fcd1d791-a598-4e25-a30d-7a380a0effa7" transform="matrix(1.5020480424447549,0,0,1.5020480424447549,-7.106828572111553,-29.03264904887598)" stroke="none" fill="black"><path d="M94.9 56.7c-.5-4-3.5-7.3-7.4-8.3-1.7-.5-3.3-.4-4.8-.1-.8.2-1.6-.1-2.1-.6L77.4 44c-.5-.6-.6-1.4-.3-2.1 1.2-2.3 1.8-4.9 1.7-7.8-.5-7.6-6.8-13.8-14.4-14.1-8.6-.4-15.7 6.5-15.7 15 0 4 1.6 7.7 4.2 10.4.7.7.9 1.8.4 2.7L47 58.6c-.5.9-1.4 1.4-2.4 1.4-.6 0-1.2.1-1.7.2-1.6.3-3.3-.3-4.4-1.4L36 56c-2.1-2.2-2.7-4.9-1.8-7.3.8-2.1 1.2-4.4.9-6.9-.7-7.2-6.7-12.9-14-13.4-9.4-.6-17.2 7.4-16 16.8.8 6.5 5.9 11.9 12.4 12.9 2 .3 4 .3 5.9-.2 2.4-.5 4.9.1 6.5 1.9l3.6 3.9c1.1 1.1 1.4 2.7 1.1 4.2-.2.8-.2 1.6-.2 2.5.2 5.2 4.7 9.5 9.9 9.5 5.6.1 10.2-4.4 10.2-10 0-1.9-.5-3.7-1.5-5.2-.5-.8-.6-1.8-.1-2.6L59.6 51c.5-.8 1.3-1.2 2.3-1.1.6.1 1.2.1 1.9.1 2.3 0 4.5-.5 6.5-1.5.8-.4 1.7-.2 2.3.4l2.8 3.1c.5.6.7 1.5.4 2.2-.6 1.6-.9 3.4-.6 5.3.7 4.4 4.4 7.9 8.9 8.4 6.3.7 11.7-4.7 10.8-11.2zm-75.1-1c-6.6 0-12-5.4-12-12s5.4-12 12-12 12 5.4 12 12-5.4 12-12 12zm43.8-8.4c-6.6 0-12-5.4-12-12s5.4-12 12-12 12 5.4 12 12c0 6.7-5.3 12-12 12z"></path></g><!----></svg>