<svg data-v-423bf9ae="" xmlns="http://www.w3.org/2000/svg" viewBox="0 0 349 90" class="iconLeft"><!----><!----><!----><g data-v-423bf9ae="" id="fae58687-6f80-44a1-845d-167a41fd0956" fill="black" transform="matrix(4.307250444043897,0,0,4.307250444043897,152.67427613432005,-1.8413493674873251)"><path d="M0.62 5.36L1.69 5.53C1.72 5.71 1.82 6.36 1.82 6.59L1.82 12.63C1.82 12.87 1.72 13.51 1.69 13.69L0.59 13.92L0.66 14.62C0.66 14.62 2.03 14.55 2.31 14.55L5.63 14.55C5.91 14.55 7.22 14.60 7.22 14.60L7.49 14.35L7.70 12.24L6.93 12.17C6.90 12.39 6.76 12.89 6.72 13.10C6.69 13.23 6.57 13.43 6.43 13.62C6.12 13.68 5.64 13.75 5.21 13.75L3.19 13.75C3.16 13.48 3.09 12.77 3.09 12.21L3.09 9.86C3.33 9.83 3.57 9.81 3.70 9.81L4.44 9.81C4.72 9.81 5.56 9.90 5.56 9.90L5.68 10.84L6.36 10.75C6.36 10.75 6.31 9.93 6.31 9.23C6.31 8.95 6.33 8.05 6.33 8.05L5.68 7.98L5.56 8.90C5.56 8.90 5.00 9.03 4.72 9.03L3.70 9.03C3.58 9.03 3.33 9.02 3.09 9.00L3.09 7.01C3.09 6.47 3.16 5.75 3.19 5.46L5.03 5.46C5.42 5.46 5.85 5.50 6.16 5.53C6.30 5.71 6.43 5.91 6.44 6.01C6.50 6.22 6.57 6.54 6.59 6.76L7.41 6.69L7.31 4.79L7.04 4.54C7.04 4.54 5.73 4.68 5.45 4.68L2.31 4.68C2.03 4.68 0.69 4.61 0.69 4.61ZM15.46 13.79L14.49 13.69C14.49 13.69 14.35 12.91 14.35 12.21L14.35 6.36C14.35 5.66 14.45 4.21 14.45 4.21L14.18 3.96L13.37 3.96C13.09 3.96 11.91 3.91 11.91 3.91L11.84 4.65L13.08 4.87C13.08 4.87 13.22 5.66 13.22 5.94L13.22 7.84C12.47 7.57 12.05 7.50 11.47 7.50C9.65 7.50 8.53 8.88 8.53 11.09C8.53 13.33 9.59 14.69 11.34 14.69C12.08 14.69 13.08 14.07 13.36 13.43L13.55 14.55C14.67 14.55 15.36 14.62 15.36 14.62ZM13.22 11.65C13.22 12.99 12.56 13.79 11.44 13.79C10.43 13.79 9.81 12.77 9.81 11.10C9.81 9.37 10.47 8.36 11.61 8.36C12.19 8.36 12.68 8.51 13.22 8.86ZM22.47 8.39L22.47 7.57L20.76 7.84C20.34 7.63 19.85 7.50 19.29 7.50C17.67 7.50 16.59 8.51 16.59 10.04C16.59 11.05 17.07 11.83 17.85 12.25C17.16 12.82 16.84 13.17 16.84 13.37C16.84 13.86 17.05 14.18 17.56 14.39C16.81 14.98 16.28 15.55 16.28 15.81C16.28 17.14 17.23 17.84 19.05 17.84C21.01 17.84 22.61 16.63 22.61 15.16C22.61 14.49 22.39 14.07 21.98 13.94C21.45 13.78 20.23 13.65 19.28 13.52C18.23 13.40 17.96 13.31 17.96 13.03C17.96 12.95 18.07 12.75 18.34 12.45C18.63 12.53 18.94 12.57 19.29 12.57C20.92 12.57 21.99 11.56 21.99 10.04C21.99 9.34 21.77 8.74 21.35 8.30ZM18.09 14.56C18.35 14.63 18.68 14.69 19.05 14.73L20.87 14.97C21.29 15.02 21.42 15.18 21.42 15.60C21.42 16.45 20.59 17.04 19.45 17.04C18.10 17.04 17.49 16.60 17.49 15.65C17.49 15.39 17.60 15.16 18.09 14.56ZM19.29 8.22C20.29 8.22 20.78 8.82 20.78 10.04C20.78 11.26 20.29 11.86 19.29 11.86C18.30 11.86 17.81 11.26 17.81 10.04C17.81 8.83 18.31 8.22 19.29 8.22ZM26.52 7.50C24.46 7.50 23.46 9.02 23.46 11.12C23.46 13.23 24.57 14.69 26.68 14.69C28.27 14.69 29.16 13.85 29.16 13.85L28.77 13.20C28.77 13.20 27.87 13.78 26.68 13.78C25.42 13.78 24.82 12.49 24.78 11.23L28.97 11.23L29.20 10.77C29.20 8.81 28.48 7.50 26.52 7.50ZM26.46 8.23C27.45 8.23 27.92 9.02 27.92 10.01C27.92 10.08 27.90 10.29 27.90 10.29L24.79 10.53C24.89 9.37 25.31 8.23 26.46 8.23ZM32.54 7.50C31.23 7.50 30.27 8.19 30.27 9.37C30.27 11.63 33.81 11.44 33.81 12.91C33.81 13.65 33.32 13.97 32.54 13.97C32.09 13.97 31.68 13.89 31.36 13.64C31.25 13.31 31.15 12.95 31.15 12.81L31.15 12.28L30.34 12.24L30.18 14.14C30.18 14.14 31.11 14.69 32.49 14.69C34.02 14.69 34.96 14.11 34.96 12.64C34.96 10.43 31.39 10.57 31.39 9.14C31.39 8.57 31.84 8.23 32.52 8.23C32.91 8.23 33.17 8.27 33.46 8.40C33.56 8.72 33.66 9.06 33.66 9.20L33.66 9.70L34.47 9.74L34.64 7.74C33.96 7.60 33.21 7.50 32.54 7.50ZM39.79 9.58L37.95 12.25C37.72 12.59 36.95 13.37 36.61 13.72L35.76 13.96L35.83 14.62C35.83 14.62 37.91 14.55 38.14 14.55C38.44 14.55 39.26 14.56 39.26 14.56L39.35 13.79L38.23 13.65C38.39 13.33 38.58 12.92 38.72 12.70L40.32 10.33L41.90 12.56C42.10 12.81 42.36 13.33 42.53 13.71L41.61 13.96L41.68 14.62C41.68 14.62 43.79 14.55 44.25 14.55C44.46 14.55 45.37 14.56 45.37 14.56L45.47 13.79L44.37 13.65C44.07 13.34 43.69 12.92 43.51 12.70L41.15 9.39L42.95 6.58C43.16 6.31 43.74 5.78 44.06 5.49L45.02 5.26L44.95 4.61C44.95 4.61 43.29 4.68 42.55 4.68C42.15 4.68 41.43 4.66 41.43 4.66L41.33 5.43L42.42 5.57C42.27 5.88 42.08 6.24 41.96 6.45L40.60 8.64L39.27 6.78C39.07 6.51 38.84 5.91 38.70 5.57L39.80 5.26L39.73 4.61C39.73 4.61 37.58 4.68 37.11 4.68C36.83 4.68 35.87 4.66 35.87 4.66L35.77 5.43L36.90 5.57C37.14 5.88 37.58 6.45 37.77 6.73Z"></path></g><!----><g data-v-423bf9ae="" id="0b1400eb-833d-4b53-bacd-6c5db50b9348" transform="matrix(1.5020480424447549,0,0,1.5020480424447549,-7.106828572111553,-29.03264904887598)" stroke="none" fill="black"><path d="M94.9 56.7c-.5-4-3.5-7.3-7.4-8.3-1.7-.5-3.3-.4-4.8-.1-.8.2-1.6-.1-2.1-.6L77.4 44c-.5-.6-.6-1.4-.3-2.1 1.2-2.3 1.8-4.9 1.7-7.8-.5-7.6-6.8-13.8-14.4-14.1-8.6-.4-15.7 6.5-15.7 15 0 4 1.6 7.7 4.2 10.4.7.7.9 1.8.4 2.7L47 58.6c-.5.9-1.4 1.4-2.4 1.4-.6 0-1.2.1-1.7.2-1.6.3-3.3-.3-4.4-1.4L36 56c-2.1-2.2-2.7-4.9-1.8-7.3.8-2.1 1.2-4.4.9-6.9-.7-7.2-6.7-12.9-14-13.4-9.4-.6-17.2 7.4-16 16.8.8 6.5 5.9 11.9 12.4 12.9 2 .3 4 .3 5.9-.2 2.4-.5 4.9.1 6.5 1.9l3.6 3.9c1.1 1.1 1.4 2.7 1.1 4.2-.2.8-.2 1.6-.2 2.5.2 5.2 4.7 9.5 9.9 9.5 5.6.1 10.2-4.4 10.2-10 0-1.9-.5-3.7-1.5-5.2-.5-.8-.6-1.8-.1-2.6L59.6 51c.5-.8 1.3-1.2 2.3-1.1.6.1 1.2.1 1.9.1 2.3 0 4.5-.5 6.5-1.5.8-.4 1.7-.2 2.3.4l2.8 3.1c.5.6.7 1.5.4 2.2-.6 1.6-.9 3.4-.6 5.3.7 4.4 4.4 7.9 8.9 8.4 6.3.7 11.7-4.7 10.8-11.2zm-75.1-1c-6.6 0-12-5.4-12-12s5.4-12 12-12 12 5.4 12 12-5.4 12-12 12zm43.8-8.4c-6.6 0-12-5.4-12-12s5.4-12 12-12 12 5.4 12 12c0 6.7-5.3 12-12 12z"></path></g><!----></svg>